<?xml version="1.0" encoding="utf-8"?>
<!-- Svg Vector Icons : http://www.onlinewebfonts.com/icon -->
<!DOCTYPE svg PUBLIC "-//W3C//DTD SVG 1.1//EN" "http://www.w3.org/Graphics/SVG/1.1/DTD/svg11.dtd">
<svg version="1.1" xmlns="http://www.w3.org/2000/svg" xmlns:xlink="http://www.w3.org/1999/xlink" x="0px" y="0px" viewBox="0 0 1000 1000" enable-background="new 0 0 1000 1000" xml:space="preserve">
<metadata> Svg Vector Icons : http://www.onlinewebfonts.com/icon </metadata>
<g><path d="M328.2,180c-41,0-75,30.2-80.7,69.4h161.3C403.2,210.2,369.2,180,328.2,180z"/><path d="M637.9,400.5c-40.6,0-77.4,16.5-104,43.1c-26.6,26.6-43.1,63.4-43.1,104c0,40.6,16.4,77.4,43.1,104c26.6,26.6,63.4,43.1,104,43.1c40.6,0,77.4-16.5,104-43.1c26.6-26.6,43.1-63.4,43.1-104c0-40.6-16.5-77.4-43.1-104C715.3,416.9,678.5,400.5,637.9,400.5z M597.5,520.4c-20.6,35.7-34.3,66.9-61.5,51.2c-27.3-15.7-32.7-57.4-12.1-93.1c20.6-35.7,59.4-51.8,86.6-36.1C637.8,458.1,618.1,484.7,597.5,520.4z"/><path d="M890.4,284.8h-31.6l-66.9-110.6H500.7l-58.2,110.6H245.3c-54.7,0-99.5,44.8-99.5,99.5V463h99.5v127.3h128.7v128.4H245.3v107c0,0,0,0,0,0h645.2c54.8,0,99.6-44.8,99.6-99.5V384.4C990,329.6,945.2,284.8,890.4,284.8z M790.1,699.8c-38.9,38.9-92.8,63.1-152.2,63.1c-59.4,0-113.3-24.1-152.2-63.1c-38.9-39-63.1-92.8-63.1-152.2c0-59.4,24.1-113.3,63.1-152.2c39-39,92.8-63.1,152.2-63.1c59.4,0,113.3,24.1,152.2,63.1c39,39,63.1,92.8,63.1,152.2C853.2,607,829.1,660.8,790.1,699.8z"/><path d="M352.5,610.6H223.9V483.3h-85.5v127.3H10v87.9h128.3v127.3h85.5V698.5h128.7V610.6z"/></g>
</svg>