<?xml version="1.0" encoding="utf-8"?>
<!-- Svg Vector Icons : http://www.onlinewebfonts.com/icon -->
<!DOCTYPE svg PUBLIC "-//W3C//DTD SVG 1.1//EN" "http://www.w3.org/Graphics/SVG/1.1/DTD/svg11.dtd">
<svg version="1.1" xmlns="http://www.w3.org/2000/svg" xmlns:xlink="http://www.w3.org/1999/xlink" x="0px" y="0px" viewBox="0 0 1000 1000" enable-background="new 0 0 1000 1000" xml:space="preserve">
<metadata> Svg Vector Icons : http://www.onlinewebfonts.com/icon </metadata>
<g><g transform="translate(0.000000,511.000000) scale(0.100000,-0.100000)"><path d="M4398.4,4978.6c-1426.2-172.4-2722.5-983.4-3520.7-2201c-153.3-234.1-395.9-717.3-489.6-979.2c-93.7-257.6-204.3-693.9-249-979.2C85.9,476.7,88-268.3,139.1-606.8c253.3-1613.5,1243.1-2971.5,2686.3-3682.5c457.6-225.6,877-359.7,1407-451.3c368.2-61.7,1106.9-68.1,1477.2-8.5c1969,308.6,3537.7,1713.5,4031.6,3610.1c100,381,140.5,664.1,155.4,1077.1c57.5,1560.3-615.2,3018.3-1856.1,4020.9c-523.6,423.6-1317.6,798.2-1996.6,945.1C5554.3,5010.6,4898.7,5040.4,4398.4,4978.6z M5443.6,4331.5c1585.8-178.8,2928.9-1202.7,3512.2-2682c195.8-498.1,276.7-955.7,274.6-1553.9c0-468.3-25.5-679-129.9-1074.9c-259.7-998.3-906.8-1890.2-1790.1-2471.3c-776.9-513-1785.9-759.9-2709.7-668.4c-1034.5,104.3-1928.5,536.4-2648,1279.3c-474.7,489.6-770.6,974.9-981.3,1605c-295.9,891.9-295.9,1792.3,4.3,2692.7c517.2,1556,1907.2,2682,3542,2871.5C4745.4,4355,5217.9,4357.1,5443.6,4331.5z"/><path d="M2431.6,2826.6c-61.7-23.4-146.9-119.2-159.6-178.8c-8.5-38.3,2.1-93.7,27.7-151.1c57.5-129.8,1771-3258.9,1800.8-3286.5c31.9-34.1,3214.2-1773.1,3312.1-1811.4c68.1-27.7,87.3-27.7,155.4,2.1c97.9,40.4,170.3,149,155.4,236.3c-6.4,55.3-1649.7,3088.6-1790.1,3310c-40.4,63.9-278.9,202.2-1694.4,974.9c-904.7,496-1675.2,906.8-1711.4,911C2493.3,2837.3,2448.6,2835.1,2431.6,2826.6z M5188.1,523.5c287.4-129.8,355.5-510.9,132-734.4c-146.9-144.7-329.9-176.7-517.3-89.4c-342.7,159.6-349.1,636.4-10.6,815.2C4907.2,574.6,5066.8,578.8,5188.1,523.5z"/></g></g>
</svg>