<?xml version="1.0" encoding="utf-8"?>
<!-- Svg Vector Icons : http://www.onlinewebfonts.com/icon -->
<!DOCTYPE svg PUBLIC "-//W3C//DTD SVG 1.1//EN" "http://www.w3.org/Graphics/SVG/1.1/DTD/svg11.dtd">
<svg version="1.1" xmlns="http://www.w3.org/2000/svg" xmlns:xlink="http://www.w3.org/1999/xlink" x="0px" y="0px" viewBox="0 0 1000 1000" enable-background="new 0 0 1000 1000" xml:space="preserve">
<metadata> Svg Vector Icons : http://www.onlinewebfonts.com/icon </metadata>
<g><path d="M785.8,10H214.2C146.5,10,91.7,64.8,91.7,132.5v735c0,67.7,54.8,122.5,122.5,122.5h571.7c67.6,0,122.5-54.8,122.5-122.5l0-735C908.3,64.8,853.5,10,785.8,10z M729.4,843L729.4,843l-458.7,0v0c-19.4-0.6-34.9-16.8-34.9-36.7s15.5-36.1,34.9-36.7v0h458.7v0c19.4,0.6,34.9,16.8,34.9,36.7S748.7,842.3,729.4,843z M729.4,647L729.4,647l-458.7,0v0c-19.4-0.6-34.9-16.8-34.9-36.7c0-19.9,15.5-36.1,34.9-36.7v0h458.7v0c19.4,0.6,34.9,16.8,34.9,36.7C764.2,630.2,748.7,646.3,729.4,647z M729.4,451L729.4,451l-458.7,0v0c-19.4-0.6-34.9-16.8-34.9-36.7c0-19.9,15.5-36.1,34.9-36.7v0h458.7v0c19.4,0.6,34.9,16.8,34.9,36.7S748.7,450.3,729.4,451z M729.4,255L729.4,255l-458.7,0v0c-19.4-0.6-34.9-16.8-34.9-36.7c0-19.9,15.5-36.1,34.9-36.7v0h458.7v0c19.4,0.6,34.9,16.8,34.9,36.7C764.2,238.1,748.7,254.3,729.4,255z"/></g>
</svg>