<?xml version="1.0" encoding="utf-8"?>
<!-- Svg Vector Icons : http://www.onlinewebfonts.com/icon -->
<!DOCTYPE svg PUBLIC "-//W3C//DTD SVG 1.1//EN" "http://www.w3.org/Graphics/SVG/1.1/DTD/svg11.dtd">
<svg version="1.1" xmlns="http://www.w3.org/2000/svg" xmlns:xlink="http://www.w3.org/1999/xlink" x="0px" y="0px" viewBox="0 0 1000 1000" enable-background="new 0 0 1000 1000" xml:space="preserve">
<metadata> Svg Vector Icons : http://www.onlinewebfonts.com/icon </metadata>
<g><path d="M952.4,447.3c-21.1,14.1-70.3,49.2-168.8,105.5c-14.1,7-14.1,14.1,0,42.2c7,21.1,35.2,84.4,49.2,112.5c7,14.1,7,21.1-7,28.1c-14.1,14.1-49.2-42.2-112.5-112.5c-35.2-35.2-42.2-14.1-84.4,14.1c-42.2,28.1-84.4,63.3-126.6,63.3c-49.2,0-98.5-42.2-161.8-84.4c-14.1,0-28.1-7-56.3,28.1c-28.1,28.1-63.3,70.3-77.4,91.4c-14.1,14.1-14.1,14.1-21.1,7c-7,0-14.1-14.1-7-28.1c14.1-21.1,35.2-70.3,49.2-105.5c7-21.1,21.1-42.2,7-49.2c-91.4-56.3-154.7-91.4-203.9-119.6c-7-7-21.1,0-21.1,21.1c0,84.4,0,344.6,0,344.6c0,49.2,42.2,91.4,91.4,91.4h794.7c49.2,0,91.4-42.2,91.4-91.4c0,0,0-267.2,0-351.6C994.6,447.3,987.5,426.2,952.4,447.3z"/><path d="M868,426.2V243.3c0-77.4-63.3-140.7-140.7-140.7H277.2c-77.4,0-140.7,63.3-140.7,140.7v182.9c0,0,344.6,203.9,365.7,203.9C530.4,630.1,868,426.2,868,426.2z M340.5,236.3h330.5v63.3H340.5V236.3z M340.5,362.9h330.5v63.3H340.5V362.9z"/></g>
</svg>