<?xml version="1.0" encoding="utf-8"?>
<!-- Svg Vector Icons : http://www.onlinewebfonts.com/icon -->
<!DOCTYPE svg PUBLIC "-//W3C//DTD SVG 1.1//EN" "http://www.w3.org/Graphics/SVG/1.1/DTD/svg11.dtd">
<svg version="1.1" xmlns="http://www.w3.org/2000/svg" xmlns:xlink="http://www.w3.org/1999/xlink" x="0px" y="0px" viewBox="0 0 1000 1000" enable-background="new 0 0 1000 1000" xml:space="preserve">
<metadata> Svg Vector Icons : http://www.onlinewebfonts.com/icon </metadata>
<g><g transform="matrix(1 0 0 -1 0 1008)"><path d="M285.6,354.9c0,17-6,31.5-17.9,43.4c-11.9,11.9-26.4,17.9-43.4,17.9s-31.5-6-43.4-17.9c-11.9-11.9-17.9-26.4-17.9-43.4s6-31.5,17.9-43.4c11.9-11.9,26.4-17.9,43.4-17.9s31.5,6,43.4,17.9C279.7,323.4,285.6,337.9,285.6,354.9z M346.9,538.6c0,17-6,31.5-17.9,43.4c-11.9,11.9-26.4,17.9-43.4,17.9s-31.5-6-43.4-17.9c-11.9-11.9-17.9-26.4-17.9-43.4s6-31.5,17.9-43.4c11.9-11.9,26.4-17.9,43.4-17.9s31.5,6,43.4,17.9C340.9,507.1,346.9,521.6,346.9,538.6z M530.6,599.9c0,17-6,31.5-17.9,43.4c-11.9,11.9-26.4,17.9-43.4,17.9s-31.5-6-43.4-17.9c-11.9-11.9-17.9-26.4-17.9-43.4s6-31.5,17.9-43.4c11.9-11.9,26.4-17.9,43.4-17.9s31.5,6,43.4,17.9C524.7,568.4,530.6,582.9,530.6,599.9z M789.2,460.4l64.7,64.7L779,599.9l74.9,74.9l-64.7,64.7l-74.9-74.9l-74.9,74.9l-64.7-64.7l74.9-74.9L574.9,525l64.7-64.7l74.9,74.9L789.2,460.4z M990,814.3v-735L683.8,201.8L316.3,79.3L10,201.8v735l306.3-122.5l367.5,122.5L990,814.3z"/></g></g>
</svg>