<?xml version="1.0" encoding="utf-8"?>
<!-- Svg Vector Icons : http://www.onlinewebfonts.com/icon -->
<!DOCTYPE svg PUBLIC "-//W3C//DTD SVG 1.1//EN" "http://www.w3.org/Graphics/SVG/1.1/DTD/svg11.dtd">
<svg version="1.1" xmlns="http://www.w3.org/2000/svg" xmlns:xlink="http://www.w3.org/1999/xlink" x="0px" y="0px" viewBox="0 0 1000 1000" enable-background="new 0 0 1000 1000" xml:space="preserve">
<metadata> Svg Vector Icons : http://www.onlinewebfonts.com/icon </metadata>
<g><path d="M84.8,630.4c47.8-10.4,95.5-9.2,142.9,3.7c47.5,12.8,89.9,37.3,127.3,73.3c18,18,33.3,38.3,45.7,60.8c12.5,22.5,22,45.9,28.6,70.2c6.6,24.3,10,48.9,10.4,73.8c0.3,24.9-1.9,48.8-6.8,71.7c-47.1,10.4-94.6,7.6-142.4-8.3c-47.8-15.9-90.1-42.3-126.8-79c-37.4-36-62.5-77.8-75.3-125.3C75.6,723.8,74.4,676.8,84.8,630.4L84.8,630.4z M915.3,630.4c10.4,46.4,9.2,93.4-3.7,140.9c-12.8,47.5-37.6,89.2-74.3,125.3c-18,18-39.2,33.1-63.4,45.2c-24.3,12.1-49.9,21.8-76.9,29.1c-27,7.3-54.9,12.1-83.7,14.5c-28.8,2.4-57,2.9-84.7,1.6h-60.3V596.2c-40.2-4.1-77.6-15.2-112.2-33.2c-27-13.9-51.8-31.2-74.3-52c-22.5-20.8-41.8-44-57.7-69.6c-15.9-25.6-28.4-53.4-37.4-83.2c-9-29.8-13.5-61-13.5-93.5c0-43.6,8.7-85.9,26-126.8c33.3,8.3,63.9,21,92,37.9c28.1,17,53.2,37.6,75.3,61.9c6.2-47.1,21.7-90.2,46.3-129.4c24.6-39.1,55.6-71.9,93-98.2c38.8,26.3,70.5,59.6,95.1,99.8c24.6,40.2,39.7,84.2,45.2,132c22.2-24.3,47.5-45.2,75.9-62.9c28.4-17.7,59.3-30.7,92.5-39c15.9,39.5,23.9,81.1,23.9,124.7c0,31.9-4.3,62.7-13,92.5c-8.7,29.8-21.1,57.5-37.4,83.2c-16.3,25.7-35.5,48.9-57.7,69.6c-22.2,20.8-46.8,38.1-73.8,52v1c-19.4,9.7-39.3,17.5-59.8,23.4c-20.4,5.9-41.7,9.5-63.9,10.9v279.6c8.3-28.4,21.1-55.6,38.5-81.6c17.3-26,37.4-50.1,60.3-72.2c18-18,38.6-34,61.9-47.8c23.2-13.9,47.3-24.9,72.2-33.2c24.9-8.3,50.2-13.5,75.9-15.6S891.7,625.6,915.3,630.4L915.3,630.4z"/></g>
</svg>